<svg xmlns="http://www.w3.org/2000/svg" width="1280" height="220" viewBox="0 0 1280 220">
  <rect width="1280" height="220" fill="#0F172A"/>
  <!-- Honeycomb hex pattern, right side, low opacity -->
  <g opacity="0.35" fill="#2563EB">
    <polygon points="1100,40 1122,52 1122,78 1100,90 1078,78 1078,52" />
    <polygon points="1145,68 1167,80 1167,106 1145,118 1123,106 1123,80" />
    <polygon points="1100,96 1122,108 1122,134 1100,146 1078,134 1078,108" />
    <polygon points="1055,68 1077,80 1077,106 1055,118 1033,106 1033,80" />
    <polygon points="1190,40 1212,52 1212,78 1190,90 1168,78 1168,52" />
  </g>
  <text x="100" y="88" font-family="'Courier New', Courier, monospace" font-size="56" font-weight="700" fill="#FFFFFF">honeypot-med</text>
  <text x="100" y="136" font-family="'Courier New', Courier, monospace" font-size="16" font-weight="400" fill="#94A3B8">Prompt-injection detection for healthcare AI. Browser-first. No key required.</text>
  <text x="24" y="208" font-family="'Courier New', Courier, monospace" font-size="12" font-weight="400" fill="#475569">{byteworthy}</text>
</svg>
